# xmcd
#
# Track frame offsets:
#	150
#	11590
#	26487
#	40930
#	53856
#	69101
#	83735
#	98172
#	113381
#	128449
#	142079
#	155594
#	169599
#	183633
#	200267
#	214162
#	228550
#	242517
#	256188
#	270579
#
# Disc length: 3782 seconds
#
# Revision: 1
# Processed by: cddbd v1.5.2PL0 Copyright (c) Steve Scherf et al.
# Submitted via: audiograbber 1.83.01
#
DISCID=030ec414
DTITLE=Various Artist - 40 Delta Blues Gems [CD1]
DYEAR=2012
DGENRE=Blues
TTITLE0=Sam Collins - The Yellow Dog Blues
TTITLE1=Casey Bill Weldon - Turpentine Blues
TTITLE2=Gus Cannon - Poor Boy Long Way From Home
TTITLE3=Papa Harvey Hull - Hull Gang of Brownskin Women
TTITLE4=Tommy Johnson - Big Road Blues
TTITLE5=Arthur Petties - Two Time Blues
TTITLE6=William Harris - Bullfrog Blues
TTITLE7=Rube Lacy - Mississippi Jailhouse Groan
TTITLE8=Bo Carter - Corrine, Corrina
TTITLE9=Charley Patton - Pony Blues
TTITLE10=Kid Bailey - Rowdy Blues
TTITLE11=Hambone Willie Newbern - Roll and Tumble the Blues
TTITLE12=Furry Lewis - Casey Jones
TTITLE13=Ishman Bracey - Leavin' Town Blues
TTITLE14=Mississippi John Hurt - Avalon Blues
TTITLE15=Memphis Minnie - When the Levee Breaks
TTITLE16=Frank Stokes - Nehi Mamma Blues
TTITLE17=Willie Brown - Future Blues
TTITLE18=Son House - My Black Mama Pt. 1
TTITLE19=Garfield Akers - Cottonfield Blues Pt. 1
EXTD=
EXTT0=
EXTT1=
EXTT2=
EXTT3=
EXTT4=
EXTT5=
EXTT6=
EXTT7=
EXTT8=
EXTT9=
EXTT10=
EXTT11=
EXTT12=
EXTT13=
EXTT14=
EXTT15=
EXTT16=
EXTT17=
EXTT18=
EXTT19=
PLAYORDER=
